<svg xmlns="http://www.w3.org/2000/svg" viewBox="0 0 161.2 22.75"><defs><style>.cls-1{fill:#ff0032;}</style></defs><g id="レイヤー_2" data-name="レイヤー 2"><g id="menu"><path class="cls-1" d="M3.56,22.54V15.18L0,.21H4.42L5.67,7.77,6.92.21h4.42l-3.57,15v7.36Z"/><path class="cls-1" d="M14.2,21.1a6.94,6.94,0,0,1-1.41-4.64V5.82A6.06,6.06,0,0,1,14.2,1.47,5.39,5.39,0,0,1,18.3,0a5.4,5.4,0,0,1,4.11,1.47,6.06,6.06,0,0,1,1.41,4.35V16.46a6.91,6.91,0,0,1-1.41,4.65,5.11,5.11,0,0,1-4.11,1.64A5.07,5.07,0,0,1,14.2,21.1Zm4.91-3a4,4,0,0,0,.21-1.45V5.75a3.07,3.07,0,0,0-.2-1.19.77.77,0,0,0-.79-.45c-.75,0-1.12.56-1.12,1.69V16.69a3.48,3.48,0,0,0,.24,1.46.85.85,0,0,0,.85.49A.79.79,0,0,0,19.11,18.12Z"/><path class="cls-1" d="M25.53,22.54,27.69.21h7.57l2.13,22.33H33.15l-.31-3.61H30.13l-.26,3.61Zm4.94-7.17h2L31.51,4H31.3Z"/><path class="cls-1" d="M40.17,21.24q-1.35-1.5-1.35-4.86V14.2h4.39V17c0,1.11.36,1.66,1.07,1.66a1,1,0,0,0,.83-.35,2.28,2.28,0,0,0,.23-1.18,5.21,5.21,0,0,0-.26-1.81,3.93,3.93,0,0,0-.66-1.2c-.27-.32-.75-.81-1.44-1.49l-1.93-1.92a6.65,6.65,0,0,1-2.23-4.84,6.4,6.4,0,0,1,1.31-4.36A4.83,4.83,0,0,1,44,0c2,0,3.46.53,4.35,1.6s1.32,2.73,1.32,5H45.08l0-1.53a1,1,0,0,0-.25-.7.88.88,0,0,0-.69-.26,1,1,0,0,0-.78.28,1.13,1.13,0,0,0-.26.78,3.27,3.27,0,0,0,1.25,2.27l2.6,2.49a14.62,14.62,0,0,1,1.51,1.68,6.72,6.72,0,0,1,1,1.87A8.11,8.11,0,0,1,49.76,16a8.62,8.62,0,0,1-1.21,5,4.55,4.55,0,0,1-4,1.7C42.53,22.75,41.07,22.25,40.17,21.24Z"/><path class="cls-1" d="M53,21.1a6.94,6.94,0,0,1-1.41-4.64V5.82A6.06,6.06,0,0,1,53,1.47,5.4,5.4,0,0,1,57.1,0a5.39,5.39,0,0,1,4.1,1.47,6.06,6.06,0,0,1,1.41,4.35V16.46a6.91,6.91,0,0,1-1.41,4.65,5.1,5.1,0,0,1-4.1,1.64A5.08,5.08,0,0,1,53,21.1Zm4.91-3a4,4,0,0,0,.21-1.45V5.75a3.07,3.07,0,0,0-.2-1.19.77.77,0,0,0-.79-.45c-.74,0-1.12.56-1.12,1.69V16.69a3.48,3.48,0,0,0,.24,1.46.85.85,0,0,0,.86.49A.79.79,0,0,0,57.9,18.12Z"/><path class="cls-1" d="M64.92.21H71A4.66,4.66,0,0,1,74.53,1.4a5.7,5.7,0,0,1,1.1,3.9v1c0,2.13-.76,3.41-2.29,3.82a2.84,2.84,0,0,1,2,1.69,9.06,9.06,0,0,1,.57,3.51,11,11,0,0,1-1.06,5.4A4.08,4.08,0,0,1,71,22.54H64.92Zm5.28,8.4A.8.8,0,0,0,71,8.18,2.83,2.83,0,0,0,71.19,7V4.73c0-.73-.32-1.09-1-1.09h-.93v5ZM71.47,17V14.17a3.09,3.09,0,0,0-.3-1.53,1.1,1.1,0,0,0-1-.52h-.83v6.47l.44,0C70.89,18.62,71.47,18.06,71.47,17Z"/><path class="cls-1" d="M77.69,22.54V.21H82V22.54Z"/><path class="cls-1" d="M100.53,9.61H98.28L94.43.54h2.24Zm-6.1,0V1.4l1.84,4.31v3.9Zm6.1-9.07V8.75L98.68,4.41V.54Z"/><path class="cls-1" d="M104.4,7.76h.8V9.61h-1.63L102.28,7.8V2.35L103.57.54h1.63V2.38h-.8Zm1.94-5.38h-.81V.54h1.64l1.28,1.81V7.8l-1.28,1.81h-1.64V7.76h.81Z"/><path class="cls-1" d="M113.89,9.61h-2.06L109.53.54h2.16Zm.33-9.07h2.12l-2.2,8.8-1-4Z"/><path class="cls-1" d="M119.67,5.88V9.61h-2.11V.54h2.11V4.13h2V5.88ZM120,2.29V.54h3.31V3.16h-2V2.29Zm0,7.32V7.8h1.19V6.89h2.12V9.61Z"/><path class="cls-1" d="M125.11,9.61V.54h2.12V9.61Zm2.45,0V7.8h1.05V6.65h1.92v3Z"/><path class="cls-1" d="M135.19,7.67h.63V2.47h-.63V.54h3.38V2.47h-.63v5.2h.63V9.61h-3.38Z"/><path class="cls-1" d="M146.48,9.61h-2.25L140.38.54h2.24Zm-6.1,0V1.4l1.84,4.31v3.9Zm6.1-9.07V8.75l-1.84-4.34V.54Z"/><path class="cls-1" d="M148.07.54h5.51v2h-5.51ZM149.73,3h2.2V9.61h-2.2Z"/><path class="cls-1" d="M157.15,7.76h.79V9.61h-1.63L155,7.8V2.35L156.31.54h1.63V2.38h-.79Zm1.93-5.38h-.8V.54h1.64l1.28,1.81V7.8l-1.28,1.81h-1.64V7.76h.8Z"/><path class="cls-1" d="M94.43,22.31V14.08l2,4.74v3.49Zm0-9.07h2.25l1.71,4L99.73,14v4.57L98.2,22.31ZM100,22.31V13.24h2.11v9.07Z"/><path class="cls-1" d="M106.12,20.5h.78v1.81h-1.62L104,20.5V13.24h2.12Zm4,0-1.27,1.81h-1.63V20.5H108V13.24h2.12Z"/><path class="cls-1" d="M115.92,22.31v-3.4h-2.75l-1.27-1.82v-2l1.27-1.81h.72v3.22h2.92L118,18.28V20.5l-1.27,1.81Zm-4-2.72H114v1.08h1.57v1.64H113L111.9,20.5Zm2.32-4.72V13.24h2.55l1.1,1.58v1h-2v-.91Z"/><path class="cls-1" d="M119.75,20.37h.64v-5.2h-.64V13.24h3.39v1.93h-.64v5.2h.64v1.94h-3.39Z"/><path class="cls-1" d="M127,22.31h-.84l-1.27-1.81V15.05l1.27-1.81H127Zm.34-7.26V13.24h2.25l1.27,1.81v1.82h-2.11V15.05Zm0,7.26V20.5h1.41V19.17h2.11V20.5l-1.27,1.81Z"/></g></g></svg>